<?xml version="1.0" encoding="UTF-8"?>
<svg id="Layer_1" data-name="Layer 1" xmlns="http://www.w3.org/2000/svg" viewBox="0 0 201.94 225.99">
  <defs>
    <style>
      .cls-1 {
        fill: #1d1d1b;
        fill-rule: evenodd;
      }
    </style>
  </defs>
  <path class="cls-1" d="m0,225.61v-17.33h5.08c.93,0,1.75.11,2.47.32.72.22,1.33.64,1.85,1.29.51.64.83,1.56.95,2.76v.33c0,.7-.16,1.34-.48,1.91-.32.57-.73,1.02-1.23,1.36-.5.34-1.02.54-1.56.61.19.04.44.09.72.16.29.06.56.16.83.29.26.13.5.34.71.63.22.29.37.66.45,1.12.07.74.14,1.59.23,2.57.09.97.22,1.79.38,2.46.16.67.38,1,.66,1v.54h-2.37c-.26-.52-.41-1.2-.46-2.05-.05-.86-.11-1.75-.18-2.7-.07-.94-.29-1.66-.67-2.16-.38-.5-1.03-.75-1.95-.75H2v7.66H0Zm2-9.48h3.08c.66,0,1.22-.12,1.69-.35.47-.23.82-.56,1.06-.99.24-.43.36-.94.36-1.54,0-.04,0-.11-.01-.2,0-.1-.01-.17-.01-.22-.09-.98-.41-1.69-.96-2.11-.55-.42-1.38-.63-2.49-.63H2v6.03Zm10.31,9.48l4.89-17.33h2.71l4.71,17.33h-2.18l-1.25-4.93h-5.45l-1.25,4.93h-2.18Zm8.32-6.75l-2.18-8.95-2.16,8.95h4.34Zm6.17,6.75v-17.33h5.08c3.86,0,5.8,2.68,5.8,8.04,0,1.44-.12,2.83-.34,4.16-.23,1.33-.78,2.51-1.65,3.56-.88,1.05-2.18,1.57-3.92,1.57h-4.96Zm2-1.82h3.09c2.43,0,3.64-1.95,3.64-5.84,0-.19,0-.37-.01-.55-.01-.17-.02-.29-.02-.36,0-1.55-.08-2.8-.24-3.75-.16-.95-.54-1.72-1.14-2.31-.61-.59-1.54-.88-2.79-.88h-2.53v13.7Zm11.41-6.56c0-1.35.04-2.5.12-3.46.08-.95.29-1.89.64-2.81.34-.93.91-1.69,1.69-2.29.78-.6,1.84-.92,3.16-.96.9,0,1.71.17,2.45.51.73.34,1.33.91,1.79,1.72.45.8.68,1.86.68,3.18,0,.2,0,.35-.02.44h-1.8c0-1.17-.22-2.13-.66-2.89-.44-.75-1.31-1.13-2.61-1.13s-2.23.69-2.64,2.09c-.41,1.4-.61,3.04-.61,4.92v.68c0,1.38.07,2.54.19,3.48.13.95.43,1.74.91,2.39.47.65,1.19,1,2.14,1.06.88,0,1.55-.26,2.01-.78.46-.53.75-1.14.88-1.85.13-.71.2-1.48.2-2.29h1.99c.01.14.02.34.02.61,0,.84-.09,1.63-.28,2.36-.18.74-.47,1.39-.86,1.95-.39.57-.9,1.02-1.53,1.34-.63.32-1.38.49-2.24.49-1.19-.05-2.16-.29-2.9-.73-.75-.44-1.31-1.04-1.7-1.8-.39-.76-.66-1.65-.8-2.66-.14-1-.21-2.2-.21-3.56Zm12.98-.57c.03-.76.07-1.62.14-2.57.07-1.04.26-2,.58-2.9.33-.89.89-1.66,1.69-2.29.82-.64,1.94-.98,3.36-1.03,1.19,0,2.18.27,2.97.79.8.51,1.39,1.21,1.79,2.08.37.78.65,1.71.83,2.8.14.82.21,1.92.21,3.29v.49c0,2.36-.35,4.38-1.04,6.08-.72,1.69-2.31,2.54-4.75,2.54-1.49,0-2.66-.38-3.52-1.13-.85-.71-1.43-1.75-1.76-3.1-.33-1.36-.49-3.05-.49-5.07Zm1.99-.02s0,.17.02.5c.01.33.02.69.03,1.09.03,1.03.14,1.99.33,2.87.19.88.56,1.64,1.11,2.27.54.64,1.32.96,2.32.96s1.78-.28,2.32-.84c.54-.55.9-1.23,1.06-2.06.17-.87.25-1.82.25-2.87,0-.06,0-.2-.01-.42,0-.22-.01-.41-.01-.56v-.94c0-1.45-.09-2.65-.28-3.62-.16-.97-.53-1.77-1.09-2.39-.56-.61-1.37-.91-2.43-.91-.97,0-1.72.33-2.25,1-.54.69-.9,1.54-1.09,2.55-.18,1.05-.28,2.17-.28,3.37Zm4.31-12.97h2.53l-2.9,3.31h-1.62l1.99-3.31Zm10.41,21.94l-3.62-17.33h2.18l2.34,11.87.37,3.45.53-3.45,2.56-11.87h2.34l2.55,12.4.34,3.11.37-3.11,2.52-12.4h2l-3.62,17.33h-2.55l-2.52-13.31-.37-2.57-.16,2.57-2.74,13.31h-2.52Zm23.18,0v-17.33h4.9c1.49,0,2.74.36,3.74,1.08,1.01.72,1.51,2.06,1.51,4.03,0,.93-.15,1.76-.46,2.5-.31.74-.81,1.33-1.51,1.77-.7.44-1.6.66-2.71.66-.17,0-.3,0-.39-.03h-3.08v7.31h-2Zm2-9.13h2.71c1.14,0,1.97-.24,2.49-.72.52-.48.78-1.33.78-2.55,0-1.95-1.03-2.92-3.08-2.92h-2.9v6.2Zm10.87,9.13v-17.33h5.08c.93,0,1.75.11,2.47.32.72.22,1.33.64,1.85,1.29.51.64.83,1.56.95,2.76v.33c0,.7-.16,1.34-.48,1.91-.32.57-.73,1.02-1.23,1.36-.5.34-1.02.54-1.56.61.19.04.44.09.72.16.29.06.57.16.83.29.26.13.5.34.71.63.21.29.37.66.45,1.12.07.74.14,1.59.23,2.57.09.97.22,1.79.38,2.46.16.67.38,1,.66,1v.54h-2.37c-.25-.52-.41-1.2-.46-2.05-.05-.86-.11-1.75-.18-2.7-.07-.94-.29-1.66-.67-2.16-.38-.5-1.03-.75-1.95-.75h-3.43v7.66h-2Zm2-9.48h3.08c.66,0,1.22-.12,1.69-.35.47-.23.82-.56,1.06-.99.24-.43.36-.94.36-1.54,0-.04,0-.11-.01-.2,0-.1-.01-.17-.01-.22-.09-.98-.41-1.69-.96-2.11-.55-.42-1.38-.63-2.49-.63h-2.71v6.03Zm10.31,9.48l4.89-17.33h2.71l4.71,17.33h-2.18l-1.25-4.93h-5.45l-1.25,4.93h-2.18Zm8.32-6.75l-2.18-8.95-2.16,8.95h4.34Zm8.17,6.75l-3.62-17.33h2.18l2.34,11.87.37,3.45.53-3.45,2.56-11.87h2.34l2.55,12.4.34,3.11.37-3.11,2.52-12.4h2l-3.62,17.33h-2.55l-2.52-13.31-.37-2.57-.16,2.57-2.74,13.31h-2.52Zm17.01,0v-17.33h3.27l5.43,15.7v-15.7h1.99v17.33h-3.27l-5.42-15.88v15.88h-1.99Zm17.91,0v-6.56l-5.24-10.77h2.34l3.8,8.57,3.83-8.57h2.16l-4.89,10.77v6.56h-2Zm8.54-8.38c0-1.35.04-2.5.12-3.46.08-.95.29-1.89.64-2.81.34-.93.91-1.69,1.69-2.29.79-.6,1.84-.92,3.16-.96.89,0,1.71.17,2.45.51.73.34,1.33.91,1.79,1.72.45.8.68,1.86.68,3.18,0,.2,0,.35-.02.44h-1.8c0-1.17-.22-2.13-.66-2.89-.44-.75-1.31-1.13-2.61-1.13s-2.23.69-2.64,2.09c-.41,1.4-.61,3.04-.61,4.92v.68c0,1.38.06,2.54.19,3.48.12.95.43,1.74.9,2.39.47.65,1.19,1,2.14,1.06.88,0,1.55-.26,2.01-.78.46-.53.75-1.14.88-1.85.13-.71.2-1.48.2-2.29h1.99c.02.14.02.34.02.61,0,.84-.09,1.63-.27,2.36-.18.74-.47,1.39-.86,1.95-.39.57-.9,1.02-1.54,1.34-.63.32-1.38.49-2.24.49-1.19-.05-2.16-.29-2.9-.73-.74-.44-1.31-1.04-1.7-1.8-.39-.76-.66-1.65-.8-2.66-.14-1-.21-2.2-.21-3.56Zm13.4,8.38v-17.33h1.81v7.12h6.72v-7.12h1.81v17.33h-1.81v-8.38h-6.72v8.38h-1.81Z"/>
  <path class="cls-1" d="m29.15,198.78v-17.2h2v8.7l6.17-8.7h2.53l-5.61,7.23,5.8,9.97h-2.53l-4.55-8.16-1.8,2.18v5.98h-2Zm13.06,0v-17.2h5.08c.93,0,1.75.11,2.47.32.72.21,1.33.64,1.85,1.28.51.64.83,1.55.95,2.74v.32c0,.7-.16,1.33-.48,1.89-.32.56-.73,1.01-1.23,1.35-.5.34-1.02.54-1.56.6.19.04.44.09.72.15.29.06.56.16.83.29.26.13.5.34.71.62.22.29.37.66.45,1.11.07.73.14,1.58.23,2.55.09.96.22,1.78.38,2.44.16.66.38.99.66.99v.53h-2.37c-.25-.51-.41-1.19-.46-2.04-.05-.85-.11-1.74-.18-2.67-.07-.94-.29-1.65-.67-2.14-.38-.5-1.03-.75-1.95-.75h-3.43v7.61h-2Zm2-9.41h3.08c.66,0,1.22-.12,1.69-.34.47-.23.82-.56,1.06-.98.24-.43.36-.94.36-1.53,0-.04,0-.11-.01-.2,0-.1-.01-.17-.01-.21-.09-.98-.41-1.67-.96-2.09-.55-.41-1.38-.62-2.49-.62h-2.71v5.98Zm10.31,9.41l4.89-17.2h2.71l4.71,17.2h-2.18l-1.25-4.89h-5.45l-1.25,4.89h-2.18Zm8.32-6.7l-2.18-8.88-2.16,8.88h4.33Zm4.9,1.28h1.99c.01.13.04.58.08,1.36.04.78.1,1.33.19,1.63.08.31.25.54.49.71.24.17.6.25,1.08.25.44,0,.81-.05,1.11-.17.3-.11.55-.36.75-.76.2-.4.3-.99.3-1.79v-13.03h1.99v11.78c0,.99-.03,1.81-.09,2.46-.06.65-.21,1.23-.45,1.74-.24.5-.6.9-1.1,1.18-.5.28-1.16.42-1.98.42h-.37c-1.52,0-2.57-.4-3.15-1.2-.58-.79-.87-1.97-.87-3.54,0-.48,0-.84.02-1.06Zm10.89-3.46c.04-.69.08-1.54.15-2.55.07-1.01.26-1.97.58-2.86.32-.9.88-1.66,1.7-2.28.81-.62,1.94-.96,3.38-1,1.2,0,2.19.26,2.97.78.78.52,1.37,1.21,1.78,2.06.41.86.68,1.79.83,2.79.15,1,.22,2.08.22,3.25v.49c0,2.33-.36,4.34-1.06,6.03-.71,1.68-2.28,2.52-4.73,2.52-1.51,0-2.69-.37-3.54-1.1-.85-.73-1.44-1.77-1.77-3.1-.33-1.34-.49-3.01-.49-5.02Zm2,0s.02.54.05,1.57c.03,1.03.14,1.99.33,2.86.19.87.56,1.62,1.1,2.25.55.62,1.32.94,2.31.94s1.8-.28,2.33-.82c.54-.55.89-1.23,1.06-2.06.17-.82.25-1.77.25-2.83,0-.23,0-.56-.01-.98,0-.42-.01-.73-.01-.92,0-1.43-.09-2.63-.26-3.6-.17-.97-.54-1.76-1.1-2.37-.56-.61-1.37-.91-2.44-.91-.95,0-1.7.34-2.24,1.01-.54.67-.91,1.52-1.09,2.53-.19,1.01-.29,2.12-.29,3.34Zm14.64,8.88l-3.62-17.2h2.18l2.34,11.78.37,3.43.53-3.43,2.55-11.78h2.34l2.55,12.31.34,3.09.37-3.09,2.52-12.31h2l-3.62,17.2h-2.56l-2.52-13.22-.37-2.55-.16,2.55-2.74,13.22h-2.52Zm15.58,0l4.89-17.2h2.71l4.71,17.2h-2.18l-1.25-4.89h-5.45l-1.25,4.89h-2.18Zm8.32-6.7l-2.18-8.88-2.16,8.88h4.34Zm12.15,6.7v-17.2h2v17.2h-2Zm4.89-1.8l7.98-13.59h-7.79l-.02-1.8h9.97v1.8l-7.95,13.59h8.14v1.8h-10.32v-1.8Zm12.84,1.8v-17.2h4.53c.88,0,1.7.13,2.46.41.77.27,1.39.74,1.88,1.41.49.67.73,1.57.73,2.7,0,1-.23,1.77-.69,2.32-.46.55-1.07.99-1.83,1.3,1.09.17,1.84.6,2.26,1.29.42.68.63,1.58.63,2.7s-.17,1.97-.52,2.72c-.35.75-.91,1.33-1.66,1.74-.76.41-1.72.62-2.89.62h-4.9Zm4.53-9.79c1.06,0,1.81-.29,2.24-.85.44-.57.65-1.25.65-2.05,0-.6-.08-1.11-.26-1.52-.17-.41-.44-.73-.81-.95-.37-.23-.85-.37-1.46-.43h-2.9v5.8h2.53Zm-2.53,7.98h3.27c1.79,0,2.69-1.03,2.69-3.09,0-1.14-.25-1.94-.75-2.4-.5-.46-1.27-.69-2.31-.69h-2.9v6.17Zm9.25,1.8l4.89-17.2h2.71l4.71,17.2h-2.18l-1.25-4.89h-5.45l-1.25,4.89h-2.18Zm8.32-6.7l-2.18-8.88-2.16,8.88h4.34Z"/>
  <path class="cls-1" d="m102.13,7.21c36.91,17.54,61.33,69.8,62.17,111.03-35.05,21.09-90.61,23.95-128.49,0,1.69-57.29,38.32-101.36,62.23-111.02,2.21-.89,2.65-.43,4.08-.01m-1.36,107.59l7.86-.78c2.78-.28,4.75,0,5.92.83.88.63,1.39,1.67,1.54,3.12.11,1.12-.06,2.04-.49,2.75-.44.71-1.05,1.22-1.84,1.51,1.29.38,2.11.85,2.46,1.41.34.57.57,1.46.69,2.67l.12,1.27c.06.59.14,1,.25,1.23.11.23.26.34.47.32l.05.48-5.36.53c-.16-.37-.34-1.3-.56-2.81-.21-1.51-.63-2.35-1.26-2.5-.34-.07-.72-.11-1.12-.11-.41,0-.94.04-1.58.1l-.79.08.56,5.71-5.31.53-1.61-16.34Zm-13.99-1.13l5.33.6-1.81,16.32-5.33-.6,1.81-16.32Zm-24.63-5.35l5.17,1.43-1.4,5.12,5.96-3.86,6,1.66-7.35,4.39,3.66,11.62-6.18-1.71-2.08-7.35-1.57.94-1.37,5.03-5.17-1.43,4.32-15.84Zm62.01,3.54l7.52-2.12c2.25-.63,4.07-.63,5.45,0,1.38.63,2.33,1.86,2.83,3.67.44,1.57.33,2.92-.32,4.07-.79,1.39-2.34,2.41-4.67,3.07l-2.64.74,1.37,4.93-5.14,1.45-4.4-15.81Zm-17.7,6.22l.32,3.24,2.23-.22c.93-.09,1.57-.32,1.91-.69.26-.29.37-.66.32-1.13-.05-.53-.29-.92-.7-1.17-.42-.25-.93-.34-1.53-.28l-2.54.25Zm23.87-3.98l.97,3.51,2.22-.63c.58-.16,1-.42,1.27-.76.32-.42.39-.97.2-1.64-.14-.51-.42-.85-.84-1.02-.53-.21-1.3-.18-2.3.1l-1.52.43ZM100.33,12.14c37.21,16.62,53.53,64.8,56.19,85.06-26.94,16.18-86.28,18.68-112.83-.64.53-19.21,23.5-71.76,56.63-84.41Z"/>
  <path class="cls-1" d="m100.81,149.96l4.67-9.67,6.22-.3-5.54,5.61,8.44-6.48,5.08-.44-1.01,2.29c2.2-2.08,4.66-3.43,7.01-3.72l-.5,1.66c3.47-2.19,6.88-3.38,10.23-3.36l-1.43,2.09,2.64-.25c4.3-5.55,12.65-9.82,29.82-14.76l-1.58,2.09-20.85,10.64c4.07.34,15.89-6.75,19.67-8.98-5.02,10.83-13.92,15.32-26.68,13.47-7.2-.58-11.62.43-16.24,3.87,8.62-2.59,17.9-3.07,26.96-.42-11.74,10.3-11.45,12.48-29.98,4.55-8.08-3.08-12.13.17-16.94,2.12"/>
  <path class="cls-1" d="m95.89,140.45l4.16,7.29,4.17-7.39-3.52.04c-.02.64.39.68.39,1.33,0,.46-.4.96-.89.96s-.89-.51-.89-.96c0-.67.36-.68.3-1.32l-3.72.04Z"/>
  <path class="cls-1" d="m99.25,149.96l-4.67-9.67-6.22-.3,5.54,5.61-8.44-6.48-5.08-.44,1.01,2.29c-2.19-2.08-4.66-3.43-7.01-3.72l.5,1.66c-3.47-2.19-6.88-3.38-10.23-3.36l1.43,2.09-2.64-.25c-4.3-5.55-12.65-9.82-29.82-14.76l1.58,2.09,20.84,10.64c-4.07.34-15.88-6.75-19.67-8.98,5.02,10.83,13.92,15.32,26.67,13.47,7.2-.58,11.62.43,16.24,3.87-8.63-2.59-17.9-3.07-26.96-.42,11.74,10.3,11.45,12.48,29.98,4.55,8.08-3.09,12.13.17,16.94,2.12"/>
  <path class="cls-1" d="m99.73,153.32c-6.35-7.92-14.98-6.88-27.48-.03,8.71,6.54,20.91,5.84,27.48.03"/>
  <path class="cls-1" d="m153.73,61.85l10.88,6.29c-3.51-9.45-4.18-18.95.75-28.56,8.84,14.16,8.53,17.49-.13,33.97l-.05,10.29c.95-8.43,3.61-15.55,8.75-20.77,6.12,11.78,1.73,21.23-9.57,29.62-2.47-10.39-6.06-20.85-10.64-30.83m11.19,33.23c2.12-3.29,9.36-9.08,11.94-10.01-3.79,5.1-7.3,11.4-10.51,17.27-.41-2.41-.89-4.83-1.43-7.26Zm3.28,16.82c.08-10.02,2.86-18.47,11.05-27.56-.1,10.37-3.86,19.36-11.05,27.56Zm-36.45-85.35l-1.51-1.14c-8.34-9.24-17.82-16.79-28.25-21.74-.33-.1-.61-.2-.87-.28l-.07-.05c6,1.32,12.01,3.74,18.01,6.91L103.39.04c7.4,1.51,14.8,3.01,22.2,4.52,1.93,11.71,8.17,20.18,19.32,25.41-10.38-7.19-17.01-15.74-17.12-24.39,12.47,4.79,22.83,11.82,21.98,20.12-.99,11.75,1.24,17.29,7.09,20.86l.24-.23c-6.63-8.37-7.73-15.98-5.45-23.8,7.99,6.86,12.21,12.18,11.18,15.94-2.43,9.62-2.55,19.06-1.23,26.73-5.29-3.24-10.18-7.52-12.27-13.09l5.33-.52-6.69-1.1c-1.29-2.32-2.64-4.61-4.05-6.84l7.54,1.07-9.44-4c-.95-1.43-1.92-2.85-2.92-4.23l3.11-1.96-4.35.27c-1.33-1.8-2.71-3.56-4.12-5.27l6.45,1.29-8.46-4.28s-.02.01-.03.02Z"/>
  <path class="cls-1" d="m100.33,153.32c6.35-7.92,14.98-6.88,27.48-.03-8.71,6.54-20.9,5.84-27.48.03"/>
  <path class="cls-1" d="m35.63,95.04c-2.12-3.29-9.36-9.08-11.94-10.01,3.79,5.1,7.3,11.4,10.51,17.27.41-2.41.89-4.83,1.43-7.26m11.19-33.23l-10.88,6.29c3.51-9.44,4.18-18.95-.75-28.56-8.84,14.16-8.53,17.49.13,33.97l.05,10.29c-.95-8.42-3.61-15.55-8.75-20.77-6.12,11.78-1.73,21.23,9.56,29.62,2.47-10.39,6.06-20.85,10.64-30.83Zm21.98-35.29l1.51-1.14c8.34-9.24,17.82-16.79,28.25-21.75.33-.1.61-.2.87-.28l.07-.05c-6,1.32-12.01,3.74-18.01,6.91L97.16,0c-7.4,1.51-14.8,3.01-22.2,4.52-1.93,11.72-8.17,20.18-19.32,25.41,10.38-7.19,17.01-15.74,17.11-24.39-12.47,4.79-22.83,11.82-21.98,20.12,1,11.75-1.24,17.29-7.09,20.86l-.24-.23c6.63-8.37,7.73-15.98,5.45-23.8-7.99,6.86-12.21,12.19-11.18,15.94,2.43,9.62,2.55,19.06,1.23,26.73,5.29-3.24,10.18-7.52,12.27-13.09l-5.34-.52,6.69-1.1c1.29-2.32,2.64-4.61,4.04-6.84l-7.54,1.07,9.43-4c.95-1.43,1.92-2.85,2.92-4.23l-3.11-1.96,4.35.27c1.33-1.8,2.71-3.56,4.12-5.27l-6.45,1.29,8.46-4.28s.02.01.03.02Zm-36.45,85.34c-.08-10.02-2.86-18.46-11.05-27.56.1,10.37,3.87,19.36,11.05,27.56Z"/>
  <path class="cls-1" d="m107.84,76.96c1.77-1.01,3.08-2.01,3.92-3.04,1.49-1.76,2.25-3.94,2.25-6.53,0-2.32-.8-4.3-2.38-5.94-1-1.02-3-2.44-6.04-4.3l-13.11-7.95c-1.77.95-3.08,1.88-3.92,2.78-1.58,1.66-2.38,3.7-2.38,6.07,0,1.28.2,2.41.58,3.4.75,1.82,2.15,3.38,4.18,4.69l16.9,10.82Zm-24.24-40.74c0-4.32,1.49-7.97,4.49-10.93,2.98-2.98,6.92-4.46,11.83-4.46,7.21,0,12.18,2.36,14.92,7.11,1.43,2.47,2.2,5.69,2.29,9.66h-7.89c-.21-2.84-.71-4.93-1.49-6.27-1.41-2.44-3.89-3.66-7.43-3.66-2.83,0-4.98.65-6.48,1.98-1.49,1.33-2.23,3.1-2.23,5.31,0,1.28.28,2.44.83,3.46.55,1.04,1.4,1.94,2.51,2.7,2.22,1.53,6.17,3.86,11.85,7.02,10.1,5.62,15.15,11.54,15.15,17.81,0,3.54-1.08,6.64-3.25,9.3-1.23,1.53-3.32,3.33-6.26,5.42,1.59,1.45,2.82,3.05,3.69,4.78.88,1.72,1.31,3.59,1.31,5.59,0,4.03-1.58,7.51-4.74,10.44-3.15,2.95-7.4,4.41-12.75,4.41-7.06,0-12-2.26-14.81-6.79-1.57-2.44-2.52-5.91-2.85-10.38h8.01c.25,2.92.77,5.07,1.58,6.44,1.43,2.47,3.94,3.71,7.52,3.71,2.34,0,4.21-.32,5.63-.95,2.65-1.16,3.97-3.34,3.97-6.56,0-1.37-.4-2.66-1.21-3.85-.48-.66-1.15-1.34-2.03-2.06-.48-.38-2.05-1.48-4.69-3.27-1.55-1.04-3.05-2.04-4.46-2.99l-8.01-5.33c-3.18-2.11-5.46-3.95-6.82-5.49-2.37-2.66-3.55-5.63-3.55-8.95,0-2.87.89-5.45,2.66-7.77,1.77-2.31,4.11-4.34,6.98-6.09-1.32-1.21-2.34-2.49-3.06-3.85-.81-1.74-1.21-3.57-1.21-5.51Z"/>
</svg>